# xmcd CD database file
# Copyright (C) 1997 Ti Kan
#
# Track frame offsets:
#  150
#  11657
#  23290
#  58345
#  69302
#  74727
#  91535
#  108580
#  112342
#  124992
#  131615
#
# Disc length: 2210 seconds
#
# Revision: 1
# Processed by: cddbd v1.4b41PL1 Copyright (c) Steve Scherf et al.
# Submitted via: CDWizzard Release:4.24
#
DISCID=9b08a00b
DTITLE=Blues Image - Open
DYEAR=1900
DGENRE=
TTITLE0=Love Is The Answer
TTITLE1=Running The Water
TTITLE2=Clean Love
TTITLE3=La Bamba
TTITLE4=Consuelate
TTITLE5=Ride Captain Ride
TTITLE6=Pay My Dues
TTITLE7=Fugue U
TTITLE8=Parchman Farm
TTITLE9=Wrath Of Daisey
TTITLE10=Take Me
EXTD=
EXTT0=
EXTT1=
EXTT2=
EXTT3=
EXTT4=
EXTT5=
EXTT6=
EXTT7=
EXTT8=
EXTT9=
EXTT10=
PLAYORDER=
